<svg version="1.1" id="Layer_1" xmlns="http://www.w3.org/2000/svg" xmlns:xlink="http://www.w3.org/1999/xlink" x="0px" y="0px"
	 width="100%" viewBox="0 0 130 158" enable-background="new 0 0 130 158" xml:space="preserve">
<path fill="#FEFEFE" opacity="1.000000" stroke="none" 
	d="
M131.000000,58.000000 
	C131.000000,91.970901 131.000000,125.441803 131.000000,158.956360 
	C87.733444,158.956360 44.466831,158.956360 1.100108,158.956360 
	C1.100108,106.445992 1.100108,53.891724 1.100108,1.168729 
	C44.332798,1.168729 87.666344,1.168729 131.000000,1.168729 
	C131.000000,19.866125 131.000000,38.683064 131.000000,58.000000 
M62.043812,150.857849 
	C62.846786,152.468613 63.630875,154.229111 65.634193,150.934235 
	C68.698402,147.800888 71.762611,144.667526 74.945786,142.254074 
	C75.513000,142.653107 76.080215,143.052155 76.647430,143.451187 
	C77.092590,141.953110 77.537750,140.455032 78.056870,138.282227 
	C78.790909,137.528870 79.524956,136.775497 81.058167,136.039795 
	C82.124733,135.537033 83.191299,135.034271 84.257866,134.531509 
	C83.550018,134.256317 82.842171,133.981140 82.570320,133.039307 
	C87.635277,127.806252 92.700233,122.573196 97.975243,118.005013 
	C99.693985,121.002991 100.924370,118.649429 101.898811,117.473000 
	C104.085800,114.832672 106.049026,112.007011 108.324623,108.960556 
	C107.410919,108.960556 106.632545,108.960556 106.132095,108.341354 
	C107.751961,106.670303 109.230560,104.826469 111.020317,103.363220 
	C115.081139,100.043228 116.363174,95.986351 116.132896,90.731903 
	C115.710709,81.098183 115.853874,71.429222 116.066917,61.781700 
	C116.215569,55.050201 116.661316,48.401974 109.492821,44.450592 
	C111.719833,41.483368 113.587311,38.995193 115.278397,36.742023 
	C109.849136,31.114939 104.391418,25.767056 99.313995,20.079676 
	C96.288353,16.690561 93.010078,14.931160 88.455719,15.741085 
	C79.053619,17.413109 71.225975,15.199247 66.066895,6.517082 
	C65.957039,6.332202 65.569984,6.312032 64.834404,6.035178 
	C60.130756,14.663659 52.188126,16.030434 43.236458,15.023075 
	C41.100109,14.782665 38.897652,14.831247 36.756447,15.049523 
	C35.558987,15.171595 34.105919,15.606835 33.312630,16.427439 
	C26.887543,23.073740 20.591618,29.844902 14.224193,36.612122 
	C16.590406,39.206505 18.800072,41.629246 21.591969,44.690361 
	C13.677930,48.254520 13.962113,54.882092 14.211300,61.702568 
	C14.478467,69.015182 14.832599,76.398994 14.135859,83.654465 
	C13.168649,93.726433 15.007398,102.282867 23.129498,108.922211 
	C22.951807,109.092064 22.774118,109.261909 22.803421,109.794960 
	C25.198818,111.937317 27.594213,114.079681 29.993614,116.936935 
	C31.535860,119.562416 33.078106,122.187897 34.620354,124.813385 
	C35.042492,124.602623 35.464626,124.391861 35.886765,124.181107 
	C35.947960,123.382545 36.009159,122.583977 36.692211,122.070610 
	C39.366123,125.008591 42.040031,127.946571 44.100166,130.894867 
	C43.605495,131.136765 43.110825,131.378677 42.616154,131.620575 
	C43.145023,132.090775 43.673893,132.560989 44.699242,133.465302 
	C46.776760,134.646545 49.279064,135.426559 50.848255,137.087921 
	C54.784939,141.255844 58.299438,145.822510 62.043812,150.857849 
z"/>
<path fill="#070707" opacity="1.000000" stroke="none" 
	d="
M23.682280,108.434113 
	C15.007398,102.282867 13.168649,93.726433 14.135859,83.654465 
	C14.832599,76.398994 14.478467,69.015182 14.211300,61.702568 
	C13.962113,54.882092 13.677930,48.254520 21.591969,44.690361 
	C18.800072,41.629246 16.590406,39.206505 14.224193,36.612122 
	C20.591618,29.844902 26.887543,23.073740 33.312630,16.427439 
	C34.105919,15.606835 35.558987,15.171595 36.756447,15.049523 
	C38.897652,14.831247 41.100109,14.782665 43.236458,15.023075 
	C52.188126,16.030434 60.130756,14.663659 64.834404,6.035178 
	C65.569984,6.312032 65.957039,6.332202 66.066895,6.517082 
	C71.225975,15.199247 79.053619,17.413109 88.455719,15.741085 
	C93.010078,14.931160 96.288353,16.690561 99.313995,20.079676 
	C104.391418,25.767056 109.849136,31.114939 115.278397,36.742023 
	C113.587311,38.995193 111.719833,41.483368 109.492821,44.450592 
	C116.661316,48.401974 116.215569,55.050201 116.066917,61.781700 
	C115.853874,71.429222 115.710709,81.098183 116.132896,90.731903 
	C116.363174,95.986351 115.081139,100.043228 111.020317,103.363220 
	C109.230560,104.826469 107.751961,106.670303 105.682625,108.769089 
	C102.743835,111.911255 100.254517,114.625702 97.765198,117.340134 
	C92.700233,122.573196 87.635277,127.806252 82.152618,133.468384 
	C81.242943,134.605682 80.750969,135.313904 80.258987,136.022125 
	C79.524956,136.775497 78.790909,137.528870 77.719254,138.685913 
	C76.530037,139.904465 75.678421,140.719315 74.826813,141.534164 
	C71.762611,144.667526 68.698402,147.800888 65.006546,150.948914 
	C63.580357,150.718796 62.781811,150.474030 61.983261,150.229248 
	C58.299438,145.822510 54.784939,141.255844 50.848255,137.087921 
	C49.279064,135.426559 46.776760,134.646545 44.663597,133.039841 
	C44.656616,132.037766 44.685280,131.461166 44.713943,130.884552 
	C42.040031,127.946571 39.366123,125.008591 36.274906,121.620300 
	C33.901608,119.520668 31.945612,117.871353 29.989613,116.222046 
	C27.594213,114.079681 25.198818,111.937317 22.717587,110.034859 
	C23.283339,110.285149 23.934929,110.295540 24.586517,110.305939 
	C24.285105,109.681999 23.983692,109.058052 23.682280,108.434113 
M104.113220,101.586395 
	C109.038628,97.901566 110.647141,93.103027 110.118225,86.945564 
	C109.564461,80.498863 109.625031,73.941376 110.084732,67.479813 
	C110.707497,58.726261 110.148331,50.655464 102.154510,45.065273 
	C102.045265,44.988873 102.043251,44.759129 101.916603,44.374367 
	C103.665192,41.979351 105.497803,39.469265 107.176857,37.169495 
	C103.171631,32.993973 99.239716,29.175587 95.654175,25.055748 
	C93.359146,22.418722 90.829422,21.774874 87.417274,21.714537 
	C79.507385,21.574657 70.307365,25.031473 65.157295,13.185752 
	C60.772545,22.945492 53.129063,20.915665 46.149643,21.001432 
	C43.985210,21.028032 41.813488,20.905075 39.658264,21.048443 
	C38.590275,21.119484 37.232903,21.321951 36.551838,22.007095 
	C31.800640,26.786753 27.192299,31.708412 22.458582,36.667995 
	C25.006157,39.386971 27.132515,41.656387 29.384642,44.060036 
	C27.797785,45.727428 26.565247,47.311565 25.052597,48.554924 
	C21.293884,51.644505 20.030266,55.399185 20.201378,60.317398 
	C20.571712,70.961777 20.257076,81.628609 20.375422,92.284561 
	C20.394161,93.971748 20.687866,96.138176 21.735819,97.258827 
	C35.919441,112.426559 50.259014,127.448463 64.891029,142.854950 
	C77.981636,129.089981 90.807701,115.603172 104.113220,101.586395 
z"/>
<path fill="#EDEDED" opacity="1.000000" stroke="none" 
	d="
M97.870224,117.672577 
	C100.254517,114.625702 102.743835,111.911255 105.543655,109.078690 
	C106.632545,108.960556 107.410919,108.960556 108.324623,108.960556 
	C106.049026,112.007011 104.085800,114.832672 101.898811,117.473000 
	C100.924370,118.649429 99.693985,121.002991 97.870224,117.672577 
z"/>
<path fill="#F6F6F6" opacity="1.000000" stroke="none" 
	d="
M29.991615,116.579483 
	C31.945612,117.871353 33.901608,119.520668 35.963978,121.477707 
	C36.009159,122.583977 35.947960,123.382545 35.886765,124.181107 
	C35.464626,124.391861 35.042492,124.602623 34.620354,124.813385 
	C33.078106,122.187897 31.535860,119.562416 29.991615,116.579483 
z"/>
<path fill="#EFEFEF" opacity="1.000000" stroke="none" 
	d="
M74.886292,141.894119 
	C75.678421,140.719315 76.530037,139.904465 77.682274,139.023285 
	C77.537750,140.455032 77.092590,141.953110 76.647430,143.451187 
	C76.080215,143.052155 75.513000,142.653107 74.886292,141.894119 
z"/>
<path fill="#EDEDED" opacity="1.000000" stroke="none" 
	d="
M80.658577,136.030960 
	C80.750969,135.313904 81.242943,134.605682 81.934616,133.801697 
	C82.842171,133.981140 83.550018,134.256317 84.257866,134.531509 
	C83.191299,135.034271 82.124733,135.537033 80.658577,136.030960 
z"/>
<path fill="#EFEFEF" opacity="1.000000" stroke="none" 
	d="
M62.013535,150.543549 
	C62.781811,150.474030 63.580357,150.718796 64.696892,151.098053 
	C63.630875,154.229111 62.846786,152.468613 62.013535,150.543549 
z"/>
<path fill="#F6F6F6" opacity="1.000000" stroke="none" 
	d="
M44.407055,130.889709 
	C44.685280,131.461166 44.656616,132.037766 44.415359,132.822784 
	C43.673893,132.560989 43.145023,132.090775 42.616154,131.620575 
	C43.110825,131.378677 43.605495,131.136765 44.407055,130.889709 
z"/>
<path fill="#FBFBFB" opacity="1.000000" stroke="none" 
	d="
M103.873497,101.851379 
	C90.807701,115.603172 77.981636,129.089981 64.891029,142.854950 
	C50.259014,127.448463 35.919441,112.426559 21.735819,97.258827 
	C20.687866,96.138176 20.394161,93.971748 20.375422,92.284561 
	C20.257076,81.628609 20.571712,70.961777 20.201378,60.317398 
	C20.030266,55.399185 21.293884,51.644505 25.052597,48.554924 
	C26.565247,47.311565 27.797785,45.727428 29.384642,44.060036 
	C27.132515,41.656387 25.006157,39.386971 22.458582,36.667995 
	C27.192299,31.708412 31.800640,26.786753 36.551838,22.007095 
	C37.232903,21.321951 38.590275,21.119484 39.658264,21.048443 
	C41.813488,20.905075 43.985210,21.028032 46.149643,21.001432 
	C53.129063,20.915665 60.772545,22.945492 65.157295,13.185752 
	C70.307365,25.031473 79.507385,21.574657 87.417274,21.714537 
	C90.829422,21.774874 93.359146,22.418722 95.654175,25.055748 
	C99.239716,29.175587 103.171631,32.993973 107.176857,37.169495 
	C105.497803,39.469265 103.665192,41.979351 101.916603,44.374367 
	C102.043251,44.759129 102.045265,44.988873 102.154510,45.065273 
	C110.148331,50.655464 110.707497,58.726261 110.084732,67.479813 
	C109.625031,73.941376 109.564461,80.498863 110.118225,86.945564 
	C110.647141,93.103027 109.038628,97.901566 103.873497,101.851379 
M67.042465,133.990997 
	C67.042465,133.990997 67.057129,134.073441 67.624565,133.959503 
	C67.431572,133.609497 67.238579,133.259476 67.048950,132.125122 
	C67.043800,131.087372 67.038651,130.049637 67.700180,128.813492 
	C68.182877,127.560883 68.665573,126.308281 69.840088,124.743309 
	C69.558708,123.556396 69.277321,122.369476 68.350800,120.931595 
	C67.563492,120.674568 66.776176,120.417542 65.479446,120.079300 
	C65.334305,120.171486 65.189156,120.263680 64.595787,120.309326 
	C64.595787,120.309326 64.145187,120.305954 63.916382,119.738510 
	C63.433662,119.766243 62.950939,119.793983 62.468216,119.821716 
	C63.013821,120.211716 63.559425,120.601715 64.360725,121.699951 
	C64.490364,123.427139 64.620003,125.154327 64.317024,126.738907 
	C64.317024,126.738907 63.964890,127.027878 63.148857,126.816765 
	C62.983967,126.815163 62.816917,126.796623 62.654873,126.817329 
	C62.524986,126.833931 62.287399,126.913277 62.290829,126.939049 
	C62.617371,129.391541 62.962482,131.841583 63.302689,134.265366 
	C64.205597,134.200912 65.024025,134.142502 66.051956,134.589844 
	C66.395470,134.415024 66.738983,134.240219 67.042465,133.990997 
M62.523464,72.088020 
	C57.075111,72.088020 51.626759,72.088020 45.810581,72.088020 
	C46.404259,66.204384 46.945461,60.840755 47.556305,54.786976 
	C53.136604,59.068272 58.188679,62.944309 64.640686,67.894394 
	C65.881371,65.708839 67.002274,63.734276 68.016747,61.947205 
	C68.016747,73.905830 67.977280,85.369270 68.063461,96.831757 
	C68.075081,98.376846 68.207443,100.429070 69.154388,101.375320 
	C74.649796,106.866646 80.405815,112.097160 86.210678,117.544441 
	C88.988457,114.163788 92.155960,110.308830 95.884514,105.771049 
	C93.819862,105.575478 92.691162,105.817726 92.154129,105.362297 
	C87.971367,101.815025 83.874092,98.164391 79.834328,94.454323 
	C79.329124,93.990364 79.070526,92.980492 79.107971,92.244438 
	C79.720367,80.207779 80.398849,68.174477 81.097595,55.503048 
	C86.563255,59.060703 91.363831,62.185448 96.282471,65.387039 
	C98.766609,62.307713 101.012093,59.524212 103.347321,56.629471 
	C97.757294,52.609180 92.545715,48.861065 87.231873,45.039402 
	C84.788368,47.287743 82.625496,49.651020 80.084915,51.493462 
	C78.168747,52.883072 77.103195,56.993137 72.904892,54.525906 
	C71.889908,55.435478 70.431236,56.742645 68.925209,58.092255 
	C63.622425,53.773968 58.534828,49.630917 52.308582,44.560612 
	C48.955788,48.431526 46.191982,52.560158 42.533165,55.617802 
	C37.558578,59.775024 34.637863,64.329529 35.824169,70.958252 
	C35.865166,71.187325 35.518036,71.485863 35.034081,72.260773 
	C31.949057,72.260773 28.555908,72.260773 25.363663,72.260773 
	C25.363663,75.225494 25.363663,77.671425 25.363663,80.203270 
	C28.706579,80.403496 31.792263,80.588310 34.966614,80.778435 
	C35.305408,87.701874 36.482475,94.284744 35.729664,100.638969 
	C34.708069,109.261879 40.021217,112.889503 46.192429,117.488388 
	C46.192429,104.783928 46.192429,92.880585 46.192429,80.635315 
	C53.364910,81.072960 60.462311,81.747154 62.523464,72.088020 
M37.081429,32.647530 
	C36.850609,33.675846 36.619789,34.704166 36.405724,35.657825 
	C37.944027,35.997509 40.806053,36.323582 40.809433,36.677002 
	C40.848301,40.739468 43.491203,39.442566 45.510406,39.589188 
	C44.113750,35.534771 42.803909,31.732380 41.005207,26.510845 
	C39.328163,28.810928 38.224411,30.324732 37.081429,32.647530 
M78.076172,32.900490 
	C76.836517,32.736938 75.596863,32.573387 74.086617,32.374134 
	C74.158745,31.482433 74.256622,30.272362 74.385979,28.673073 
	C76.651802,29.502508 78.480621,30.171974 81.362335,31.226866 
	C77.915985,25.668972 73.784988,28.884083 70.906799,28.078625 
	C70.906799,31.877510 70.906799,35.371895 70.906799,38.864559 
	C72.390831,38.864559 73.494637,38.864559 74.379089,38.864559 
	C74.379089,37.494728 74.379089,36.291153 74.379089,36.555367 
	C76.212799,35.127159 77.146614,34.399853 78.076172,32.900490 
M88.610786,30.974648 
	C88.266525,30.340639 87.922256,29.706631 87.433441,28.806414 
	C85.057281,32.521736 87.912209,33.450237 90.033356,34.894192 
	C91.341278,35.784554 92.373886,37.079346 93.586723,38.247074 
	C96.360199,35.015907 95.753998,33.835278 88.610786,30.974648 
M56.051342,36.819077 
	C56.766953,34.973595 57.482563,33.128117 58.281460,31.067850 
	C57.037773,30.177006 55.240471,28.889616 53.276684,27.482971 
	C53.276684,31.899206 53.276684,35.424194 53.276684,40.413109 
	C54.858070,38.915707 55.496918,38.310787 56.051342,36.819077 
M61.093338,129.952789 
	C60.877380,130.790070 60.661427,131.627365 60.445469,132.464645 
	C60.851940,132.505112 61.258411,132.545578 61.664883,132.586044 
	C61.664883,131.637405 61.664883,130.688751 61.093338,129.952789 
M97.222481,102.159477 
	C97.063301,102.738380 96.904121,103.317291 96.744957,103.896202 
	C97.162155,103.489922 97.579346,103.083649 97.222481,102.159477 
z"/>
<path fill="#FEFEFE" opacity="1.000000" stroke="none" 
	d="
M23.405888,108.678162 
	C23.983692,109.058052 24.285105,109.681999 24.586517,110.305939 
	C23.934929,110.295540 23.283339,110.285149 22.614090,109.853256 
	C22.774118,109.261909 22.951807,109.092064 23.405888,108.678162 
z"/>
<path fill="#060606" opacity="1.000000" stroke="none" 
	d="
M62.654575,72.481232 
	C60.462311,81.747154 53.364910,81.072960 46.192429,80.635315 
	C46.192429,92.880585 46.192429,104.783928 46.192429,117.488388 
	C40.021217,112.889503 34.708069,109.261879 35.729664,100.638969 
	C36.482475,94.284744 35.305408,87.701874 34.966614,80.778435 
	C31.792263,80.588310 28.706579,80.403496 25.363663,80.203270 
	C25.363663,77.671425 25.363663,75.225494 25.363663,72.260773 
	C28.555908,72.260773 31.949057,72.260773 35.034081,72.260773 
	C35.518036,71.485863 35.865166,71.187325 35.824169,70.958252 
	C34.637863,64.329529 37.558578,59.775024 42.533165,55.617802 
	C46.191982,52.560158 48.955788,48.431526 52.308582,44.560612 
	C58.534828,49.630917 63.622425,53.773968 68.925209,58.092255 
	C70.431236,56.742645 71.889908,55.435478 72.904892,54.525906 
	C77.103195,56.993137 78.168747,52.883072 80.084915,51.493462 
	C82.625496,49.651020 84.788368,47.287743 87.231873,45.039402 
	C92.545715,48.861065 97.757294,52.609180 103.347321,56.629471 
	C101.012093,59.524212 98.766609,62.307713 96.282471,65.387039 
	C91.363831,62.185448 86.563255,59.060703 81.097595,55.503048 
	C80.398849,68.174477 79.720367,80.207779 79.107971,92.244438 
	C79.070526,92.980492 79.329124,93.990364 79.834328,94.454323 
	C83.874092,98.164391 87.971367,101.815025 92.154129,105.362297 
	C92.691162,105.817726 93.819862,105.575478 95.884514,105.771049 
	C92.155960,110.308830 88.988457,114.163788 86.210678,117.544441 
	C80.405815,112.097160 74.649796,106.866646 69.154388,101.375320 
	C68.207443,100.429070 68.075081,98.376846 68.063461,96.831757 
	C67.977280,85.369270 68.016747,73.905830 68.016747,61.947205 
	C67.002274,63.734276 65.881371,65.708839 64.640686,67.894394 
	C58.188679,62.944309 53.136604,59.068272 47.556305,54.786976 
	C46.945461,60.840755 46.404259,66.204384 45.810581,72.088020 
	C51.626759,72.088020 57.075111,72.088020 62.654575,72.481232 
z"/>
<path fill="#272727" opacity="1.000000" stroke="none" 
	d="
M37.101044,32.243034 
	C38.224411,30.324732 39.328163,28.810928 41.005207,26.510845 
	C42.803909,31.732380 44.113750,35.534771 45.510406,39.589188 
	C43.491203,39.442566 40.848301,40.739468 40.809433,36.677002 
	C40.806053,36.323582 37.944027,35.997509 36.405724,35.657825 
	C36.619789,34.704166 36.850609,33.675846 37.101044,32.243034 
z"/>
<path fill="#181818" opacity="1.000000" stroke="none" 
	d="
M78.078293,33.286518 
	C77.146614,34.399853 76.212799,35.127159 74.379089,36.555367 
	C74.379089,36.291153 74.379089,37.494728 74.379089,38.864559 
	C73.494637,38.864559 72.390831,38.864559 70.906799,38.864559 
	C70.906799,35.371895 70.906799,31.877510 70.906799,28.078625 
	C73.784988,28.884083 77.915985,25.668972 81.362335,31.226866 
	C78.480621,30.171974 76.651802,29.502508 74.385979,28.673073 
	C74.256622,30.272362 74.158745,31.482433 74.086617,32.374134 
	C75.596863,32.573387 76.836517,32.736938 78.078293,33.286518 
z"/>
<path fill="#060606" opacity="1.000000" stroke="none" 
	d="
M65.988861,120.160507 
	C66.776176,120.417542 67.563492,120.674568 68.637863,121.375099 
	C68.999367,122.897629 69.073822,123.976646 69.148270,125.055672 
	C68.665573,126.308281 68.182877,127.560883 67.046692,128.905060 
	C65.966476,129.009094 65.539749,129.021561 65.188049,128.657959 
	C65.091934,127.815086 64.920792,127.348305 64.749641,126.881516 
	C64.620003,125.154327 64.490364,123.427139 64.341293,121.180153 
	C64.321854,120.660355 64.145187,120.305954 64.145187,120.305954 
	C64.145187,120.305954 64.595787,120.309326 64.932602,120.449066 
	C65.625000,120.679382 65.864815,120.536621 65.988861,120.160507 
z"/>
<path fill="#1B1B1B" opacity="1.000000" stroke="none" 
	d="
M88.914185,31.197662 
	C95.753998,33.835278 96.360199,35.015907 93.586723,38.247074 
	C92.373886,37.079346 91.341278,35.784554 90.033356,34.894192 
	C87.912209,33.450237 85.057281,32.521736 87.433441,28.806414 
	C87.922256,29.706631 88.266525,30.340639 88.914185,31.197662 
z"/>
<path fill="#080808" opacity="1.000000" stroke="none" 
	d="
M56.093552,37.262474 
	C55.496918,38.310787 54.858070,38.915707 53.276684,40.413109 
	C53.276684,35.424194 53.276684,31.899206 53.276684,27.482971 
	C55.240471,28.889616 57.037773,30.177006 58.281460,31.067850 
	C57.482563,33.128117 56.766953,34.973595 56.093552,37.262474 
z"/>
<path fill="#0A0A0A" opacity="1.000000" stroke="none" 
	d="
M65.113014,129.034027 
	C65.539749,129.021561 65.966476,129.009094 66.713364,129.004242 
	C67.038651,130.049637 67.043800,131.087372 67.023926,132.809189 
	C67.018318,133.686661 67.037727,133.880051 67.057129,134.073441 
	C67.057129,134.073441 67.042465,133.990997 66.751450,133.994385 
	C66.254440,134.026550 66.048447,134.055328 65.842453,134.084091 
	C65.024025,134.142502 64.205597,134.200912 63.302689,134.265366 
	C62.962482,131.841583 62.617371,129.391541 62.290829,126.939049 
	C62.287399,126.913277 62.524986,126.833931 62.654873,126.817329 
	C62.816917,126.796623 62.983967,126.815163 63.549599,127.270950 
	C64.337898,128.161423 64.725456,128.597733 65.113014,129.034027 
z"/>
<path fill="#090909" opacity="1.000000" stroke="none" 
	d="
M69.494179,124.899490 
	C69.073822,123.976646 68.999367,122.897629 68.960426,121.500580 
	C69.277321,122.369476 69.558708,123.556396 69.494179,124.899490 
z"/>
<path fill="#DEDEDE" opacity="1.000000" stroke="none" 
	d="
M61.379112,129.846451 
	C61.664883,130.688751 61.664883,131.637405 61.664883,132.586044 
	C61.258411,132.545578 60.851940,132.505112 60.445469,132.464645 
	C60.661427,131.627365 60.877380,130.790070 61.379112,129.846451 
z"/>
<path fill="#EEEEEE" opacity="1.000000" stroke="none" 
	d="
M64.030785,120.022232 
	C64.145187,120.305954 64.321854,120.660355 64.213440,120.826035 
	C63.559425,120.601715 63.013821,120.211716 62.468216,119.821716 
	C62.950939,119.793983 63.433662,119.766243 64.030785,120.022232 
z"/>
<path fill="#A3A3A3" opacity="1.000000" stroke="none" 
	d="
M65.188049,128.657959 
	C64.725456,128.597733 64.337898,128.161423 63.957615,127.376503 
	C63.964890,127.027878 64.317024,126.738907 64.533333,126.810211 
	C64.920792,127.348305 65.091934,127.815086 65.188049,128.657959 
z"/>
<path fill="#060606" opacity="1.000000" stroke="none" 
	d="
M97.609512,102.418427 
	C97.579346,103.083649 97.162155,103.489922 96.744949,103.896194 
	C96.904121,103.317291 97.063301,102.738380 97.609512,102.418427 
z"/>
<path fill="#2D2C2C" opacity="1.000000" stroke="none" 
	d="
M67.340851,134.016479 
	C67.037727,133.880051 67.018318,133.686661 67.022247,133.201355 
	C67.238579,133.259476 67.431572,133.609497 67.340851,134.016479 
z"/>
<path fill="#2D2C2C" opacity="1.000000" stroke="none" 
	d="
M65.947205,134.336975 
	C66.048447,134.055328 66.254440,134.026550 66.771469,134.031601 
	C66.738983,134.240219 66.395470,134.415024 65.947205,134.336975 
z"/>
<path fill="#090909" opacity="1.000000" stroke="none" 
	d="
M65.734154,120.119904 
	C65.864815,120.536621 65.625000,120.679382 65.156708,120.472343 
	C65.189156,120.263680 65.334305,120.171486 65.734154,120.119904 
z"/>
</svg>